<svg width="546" height="207" viewBox="0 0 546 207" version="1.1" xmlns="http://www.w3.org/2000/svg" xmlns:xlink="http://www.w3.org/1999/xlink">
<g id="Canvas" fill="none">
<g id="Group">
<g id="MENUTEXT1 16px">
<path id="NOTES" d="M 39.875 14.5L 39.875 53L 32.56 53L 13.365 29.625L 13.365 53L 4.565 53L 4.565 14.5L 11.935 14.5L 31.075 37.875L 31.075 14.5L 39.875 14.5ZM 67.6289 53.66C 63.6323 53.66 60.0206 52.7983 56.7939 51.075C 53.6039 49.3517 51.0923 46.9867 49.2589 43.98C 47.4623 40.9367 46.5639 37.5267 46.5639 33.75C 46.5639 29.9733 47.4623 26.5817 49.2589 23.575C 51.0923 20.5317 53.6039 18.1483 56.7939 16.425C 60.0206 14.7017 63.6323 13.84 67.6289 13.84C 71.6256 13.84 75.2189 14.7017 78.4089 16.425C 81.5989 18.1483 84.1106 20.5317 85.9439 23.575C 87.7773 26.5817 88.6939 29.9733 88.6939 33.75C 88.6939 37.5267 87.7773 40.9367 85.9439 43.98C 84.1106 46.9867 81.5989 49.3517 78.4089 51.075C 75.2189 52.7983 71.6256 53.66 67.6289 53.66ZM 67.6289 46.07C 69.9023 46.07 71.9556 45.5567 73.7889 44.53C 75.6223 43.4667 77.0523 42 78.0789 40.13C 79.1423 38.26 79.6739 36.1333 79.6739 33.75C 79.6739 31.3667 79.1423 29.24 78.0789 27.37C 77.0523 25.5 75.6223 24.0517 73.7889 23.025C 71.9556 21.9617 69.9023 21.43 67.6289 21.43C 65.3556 21.43 63.3023 21.9617 61.4689 23.025C 59.6356 24.0517 58.1873 25.5 57.1239 27.37C 56.0973 29.24 55.5839 31.3667 55.5839 33.75C 55.5839 36.1333 56.0973 38.26 57.1239 40.13C 58.1873 42 59.6356 43.4667 61.4689 44.53C 63.3023 45.5567 65.3556 46.07 67.6289 46.07ZM 102.828 21.76L 90.5081 21.76L 90.5081 14.5L 124.058 14.5L 124.058 21.76L 111.738 21.76L 111.738 53L 102.828 53L 102.828 21.76ZM 158.662 45.85L 158.662 53L 128.852 53L 128.852 14.5L 157.947 14.5L 157.947 21.65L 137.707 21.65L 137.707 30.01L 155.582 30.01L 155.582 36.94L 137.707 36.94L 137.707 45.85L 158.662 45.85ZM 178.402 53.66C 175.358 53.66 172.407 53.2567 169.547 52.45C 166.723 51.6067 164.45 50.525 162.727 49.205L 165.752 42.495C 167.402 43.705 169.363 44.6767 171.637 45.41C 173.91 46.1433 176.183 46.51 178.457 46.51C 180.987 46.51 182.857 46.1433 184.067 45.41C 185.277 44.64 185.882 43.6317 185.882 42.385C 185.882 41.4683 185.515 40.7167 184.782 40.13C 184.085 39.5067 183.168 39.0117 182.032 38.645C 180.932 38.2783 179.428 37.875 177.522 37.435C 174.588 36.7383 172.187 36.0417 170.317 35.345C 168.447 34.6483 166.833 33.53 165.477 31.99C 164.157 30.45 163.497 28.3967 163.497 25.83C 163.497 23.5933 164.102 21.5767 165.312 19.78C 166.522 17.9467 168.337 16.4983 170.757 15.435C 173.213 14.3717 176.202 13.84 179.722 13.84C 182.178 13.84 184.58 14.1333 186.927 14.72C 189.273 15.3067 191.327 16.15 193.087 17.25L 190.337 24.015C 186.78 21.9983 183.223 20.99 179.667 20.99C 177.173 20.99 175.322 21.3933 174.112 22.2C 172.938 23.0067 172.352 24.07 172.352 25.39C 172.352 26.71 173.03 27.7 174.387 28.36C 175.78 28.9833 177.888 29.6067 180.712 30.23C 183.645 30.9267 186.047 31.6233 187.917 32.32C 189.787 33.0167 191.382 34.1167 192.702 35.62C 194.058 37.1233 194.737 39.1583 194.737 41.725C 194.737 43.925 194.113 45.9417 192.867 47.775C 191.657 49.5717 189.823 51.0017 187.367 52.065C 184.91 53.1283 181.922 53.66 178.402 53.66Z" transform="translate(348 153)" fill="black"/>
</g>
<g id="Cogito_5 2">
<g id="XMLID 2">
<g id="XMLID 128">
<path id="XMLID 139" d="M 115.626 115.046L 123.653 122.645L 123.24 123.06C 109.665 136.714 91.5458 144.194 72.1872 144.194C 22.5513 144.253 0.182732 108.397 0.00567174 72.8982C -0.230408 52.1804 6.91102 33.4216 20.0135 20.0648C 32.9389 6.94551 50.94 0 72.1282 0C 91.4867 0 109.665 7.47978 123.18 21.1334L 123.653 21.6083L 115.39 28.7912L 114.977 28.3757C 103.704 17.0373 88.4767 10.7448 72.0691 10.7448C 54.1861 10.7448 39.0769 16.503 28.3353 27.3665C 17.3576 38.4675 11.3965 54.4956 11.5146 72.4827C 11.6916 89.1044 17.2395 104.183 27.0368 114.927C 37.8375 126.741 53.4188 133.033 72.0691 133.033C 88.1226 133.033 103.822 126.622 115.154 115.402L 115.626 115.046Z" fill="url(#paint0_linear)"/>
</g>
<g id="XMLID 125">
<path id="XMLID 145" d="M 86.1693 14.0691C 76.9621 4.98652 64.3318 0 50.4621 0C 36.5924 0 23.9621 4.98652 14.755 14.0691C 5.07572 23.6266 -3.6023e-06 36.6865 -3.6023e-06 51.9429C -3.6023e-06 67.1399 5.13474 80.0812 14.755 89.4012C 23.9031 98.2463 36.5334 103.055 50.4621 103.055C 64.3318 103.055 77.0211 98.187 86.1693 89.4012C 95.8485 80.0812 100.924 67.1399 100.924 51.9429C 100.924 36.7459 95.8485 23.6266 86.1693 14.0691ZM 50.4621 10.3886C 73.4799 10.3886 90.1826 27.9008 90.1826 51.9429C 90.1826 75.6883 73.8341 92.31 50.4621 92.31C 27.0902 92.31 10.7417 75.6883 10.7417 51.9429C 10.7417 27.8414 27.4443 10.3886 50.4621 10.3886Z" transform="translate(128.906 40.9608)" fill="url(#paint1_linear)"/>
</g>
<g id="XMLID 119">
<path id="XMLID 136" d="M 68.4042 93.0817C 83.6904 85.4832 93.9009 68.8615 93.9009 51.1712C 93.9009 37.3396 90.1236 26.6541 81.9788 17.5716L 91.5401 6.35188L 84.2806 9.05813e-07L 74.7194 11.2197C 66.8107 5.69888 56.4822 2.4339 47.039 2.4339C 34.1136 2.4339 22.3686 6.94551 14.0468 15.1377C 5.07572 23.9234 0.354113 36.3897 0.354113 51.1712C 0.354113 64.4092 4.78063 76.5787 12.9254 85.3645C 21.4833 94.6252 33.2873 99.5524 47.039 99.5524C 63.9187 99.5524 83.5724 107.151 83.5724 128.522C 83.5724 138.139 79.9131 145.678 72.6537 150.783C 66.2795 155.295 57.3675 157.669 47.039 157.669C 37.0056 157.669 27.9755 155.116 21.6604 150.486C 14.637 145.321 10.9187 137.723 10.9187 128.522L 10.9187 127.928L 7.2046e-06 127.928L 7.2046e-06 128.522C 7.2046e-06 152.445 18.8864 168.473 47.098 168.473C 76.2539 168.473 94.373 153.157 94.373 128.522C 94.314 111.781 85.343 99.6117 68.4042 93.0817ZM 47.039 13.4161C 57.1314 13.4161 66.2205 16.8592 72.5947 23.033C 79.559 29.8004 83.2183 39.4766 83.2183 51.1712C 83.2183 71.4141 66.6926 88.5701 47.039 88.5701C 29.2739 88.5701 11.2728 75.7476 11.2728 51.1712C 11.2728 39.2392 14.8731 29.3849 21.7784 22.7362C 28.0345 16.6217 36.7695 13.4161 47.039 13.4161Z" transform="translate(241.221 38.5271)" fill="url(#paint2_linear)"/>
</g>
<g id="XMLID 113">
<path id="XMLID 39" d="M 16.8797 8.37023C 16.8797 13.891 12.6303 16.7405 8.43987 16.7405C 4.24944 16.7405 7.20459e-06 13.8317 7.20459e-06 8.37023C 7.20459e-06 2.84944 4.24944 -1.13227e-07 8.43987 -1.13227e-07C 12.6303 -1.13227e-07 16.8797 2.9088 16.8797 8.37023Z" transform="translate(349.227 2.78979)" fill="url(#paint3_linear)"/>
<path id="XMLID 115" d="M 10.9187 0L 1.44092e-05 0L 1.44092e-05 100.324L 10.9187 100.324L 10.9187 0Z" transform="translate(352 42.3256)" fill="url(#paint4_linear)"/>
</g>
<g id="XMLID 103">
<path id="XMLID 126" d="M 86.1692 14.0691C 76.9621 4.98652 64.3318 0 50.4621 0C 36.5924 0 23.9621 4.98652 14.755 14.0691C 5.13473 23.6266 -1.44092e-05 36.6865 -1.44092e-05 51.9429C -1.44092e-05 67.1399 5.13473 80.0812 14.755 89.4012C 23.9031 98.2463 36.5334 103.055 50.4621 103.055C 64.3318 103.055 77.0211 98.187 86.1692 89.4012C 95.8485 80.0812 100.924 67.1399 100.924 51.9429C 100.924 36.7459 95.7895 23.6266 86.1692 14.0691ZM 50.4621 10.3886C 73.4799 10.3886 90.1826 27.9008 90.1826 51.9429C 90.1826 75.6883 73.8341 92.31 50.4621 92.31C 27.0902 92.31 10.7416 75.6883 10.7416 51.9429C 10.7416 27.8414 27.4443 10.3886 50.4621 10.3886Z" transform="translate(445.076 40.9608)" fill="url(#paint5_linear)"/>
</g>
<g id="XMLID 1">
<path id="XMLID 86" d="M 47.334 113.562C 47.334 126.681 36.7105 137.367 23.667 137.367C 10.6236 137.367 -1.44092e-05 126.681 -1.44092e-05 113.562L -1.44092e-05 5.66133e-08L 10.9187 5.66133e-08L 10.9187 37.8145L 41.0779 37.8145L 41.0779 48.7967L 10.9187 48.7967L 10.9187 113.562C 10.9187 120.626 16.6437 126.385 23.667 126.385C 30.6904 126.385 36.4153 120.626 36.4153 113.562L 47.334 113.562Z" transform="translate(388.121 4.39294)" fill="url(#paint6_linear)"/>
</g>
</g>
</g>
</g>
</g>
<defs>
<linearGradient id="paint0_linear" x2="1" gradientUnits="userSpaceOnUse" gradientTransform="matrix(0 144.194 -123.653 0 123.653 0)">
<stop stop-color="#67BCFB"/>
<stop offset="1" stop-color="#4787D3"/>
</linearGradient>
<linearGradient id="paint1_linear" x2="1" gradientUnits="userSpaceOnUse" gradientTransform="matrix(0 103.055 -100.924 0 100.924 0)">
<stop stop-color="#67BCFB"/>
<stop offset="1" stop-color="#4787D3"/>
</linearGradient>
<linearGradient id="paint2_linear" x2="1" gradientUnits="userSpaceOnUse" gradientTransform="matrix(0 168.473 -94.373 0 94.373 0)">
<stop stop-color="#67BCFB"/>
<stop offset="1" stop-color="#4787D3"/>
</linearGradient>
<linearGradient id="paint3_linear" x2="1" gradientUnits="userSpaceOnUse" gradientTransform="matrix(0 16.7405 -16.8797 0 16.8797 0)">
<stop stop-color="#67BCFB"/>
<stop offset="1" stop-color="#4787D3"/>
</linearGradient>
<linearGradient id="paint4_linear" x2="1" gradientUnits="userSpaceOnUse" gradientTransform="matrix(0 100.324 -10.9187 0 10.9187 0)">
<stop stop-color="#67BCFB"/>
<stop offset="1" stop-color="#4787D3"/>
</linearGradient>
<linearGradient id="paint5_linear" x2="1" gradientUnits="userSpaceOnUse" gradientTransform="matrix(0 103.055 -100.924 0 100.924 0)">
<stop stop-color="#67BCFB"/>
<stop offset="1" stop-color="#4787D3"/>
</linearGradient>
<linearGradient id="paint6_linear" x2="1" gradientUnits="userSpaceOnUse" gradientTransform="matrix(0 137.367 -47.3341 0 47.3341 0)">
<stop stop-color="#67BCFB"/>
<stop offset="1" stop-color="#4787D3"/>
</linearGradient>
</defs>
</svg>
