<svg width="770" height="292" viewBox="0 0 770 292" version="1.1" xmlns="http://www.w3.org/2000/svg" xmlns:xlink="http://www.w3.org/1999/xlink">
<title>Cogito_5 2</title>
<desc>Created using Figma</desc>
<g id="Canvas" transform="matrix(2 0 0 2 -4450 7736)">
<g id="Cogito_5 2">
<g id="XMLID 2">
<g id="XMLID 128">
<g id="XMLID 139">
<use xlink:href="#path0_fill" transform="translate(2225 -3868)" fill="#4A4A4A"/>
</g>
</g>
<g id="XMLID 125">
<g id="XMLID 145">
<use xlink:href="#path1_fill" transform="translate(2315.89 -3839.11)" fill="#4A4A4A"/>
</g>
</g>
<g id="XMLID 119">
<g id="XMLID 136">
<use xlink:href="#path2_fill" transform="translate(2395.09 -3840.83)" fill="#4A4A4A"/>
</g>
</g>
<g id="XMLID 113">
<g id="XMLID 39">
<use xlink:href="#path3_fill" transform="translate(2471.25 -3866.03)" fill="#4A4A4A"/>
</g>
<g id="XMLID 115">
<use xlink:href="#path4_fill" transform="translate(2473.21 -3838.15)" fill="#4A4A4A"/>
</g>
</g>
<g id="XMLID 103">
<g id="XMLID 126">
<use xlink:href="#path5_fill" transform="translate(2538.84 -3839.11)" fill="#4A4A4A"/>
</g>
</g>
<g id="XMLID 1">
<g id="XMLID 86">
<use xlink:href="#path6_fill" transform="translate(2498.68 -3864.9)" fill="#4A4A4A"/>
</g>
</g>
</g>
</g>
</g>
<defs>
<path id="path0_fill" d="M 81.5311 81.1437L 87.191 86.503L 86.8997 86.7961C 77.3278 96.4262 64.5515 101.702 50.9012 101.702C 15.9016 101.744 0.128849 76.4543 0.0039993 51.4161C -0.162467 36.8036 4.87315 23.5727 14.1121 14.152C 23.2261 4.89877 35.9192 0 50.8596 0C 64.5099 0 77.3278 5.27559 86.858 14.9057L 87.191 15.2406L 81.3646 20.3069L 81.0733 20.0138C 73.1245 12.0166 62.3874 7.57843 50.818 7.57843C 38.2081 7.57843 27.5543 11.6398 19.98 19.302C 12.2393 27.1316 8.03602 38.4365 8.11926 51.123C 8.24411 62.8466 12.1561 73.4815 19.0644 81.0599C 26.6803 89.392 37.6671 93.8302 50.818 93.8302C 62.1377 93.8302 73.2078 89.3083 81.1982 81.3949L 81.5311 81.1437Z"/>
<path id="path1_fill" d="M 60.7604 9.92314C 54.2682 3.51706 45.3622 0 35.5823 0C 25.8023 0 16.8964 3.51706 10.4042 9.92314C 3.57903 16.6642 -2.54008e-06 25.8755 -2.54008e-06 36.6361C -2.54008e-06 47.3547 3.62065 56.4824 10.4042 63.0559C 16.8548 69.2945 25.7607 72.686 35.5823 72.686C 45.3622 72.686 54.3098 69.2526 60.7604 63.0559C 67.5855 56.4824 71.1645 47.3547 71.1645 36.6361C 71.1645 25.9174 67.5855 16.6642 60.7604 9.92314ZM 35.5823 7.32721C 51.8128 7.32721 63.5903 19.6788 63.5903 36.6361C 63.5903 53.384 52.0625 65.1075 35.5823 65.1075C 19.1021 65.1075 7.57424 53.384 7.57424 36.6361C 7.57424 19.6369 19.3518 7.32721 35.5823 7.32721Z"/>
<path id="path2_fill" d="M 48.2337 65.6519C 59.0125 60.2925 66.2122 48.569 66.2122 36.0918C 66.2122 26.3361 63.5487 18.7995 57.8056 12.3935L 64.5475 4.48007L 59.4286 6.38883e-07L 52.6867 7.91339C 47.1101 4.0195 39.8272 1.71666 33.1685 1.71666C 24.0544 1.71666 15.7727 4.89877 9.90477 10.6768C 3.57904 16.8735 0.249695 25.6662 0.249695 36.0918C 0.249695 45.4287 3.37095 54.0121 9.11406 60.2088C 15.1485 66.7405 23.4718 70.2157 33.1685 70.2157C 45.0709 70.2157 58.9292 75.575 58.9292 90.6481C 58.9292 97.431 56.349 102.749 51.2301 106.349C 46.7355 109.531 40.4514 111.206 33.1685 111.206C 26.0937 111.206 19.7263 109.406 15.2733 106.14C 10.3209 102.497 7.69909 97.138 7.69909 90.6481L 7.69909 90.2294L 5.08016e-06 90.2294L 5.08016e-06 90.6481C 5.08016e-06 107.522 13.3173 118.827 33.2101 118.827C 53.7688 118.827 66.5451 108.024 66.5451 90.6481C 66.5035 78.8408 60.1777 70.2575 48.2337 65.6519ZM 33.1685 9.46258C 40.285 9.46258 46.6939 11.891 51.1885 16.2455C 56.0993 21.0186 58.6795 27.8434 58.6795 36.0918C 58.6795 50.3694 47.0269 62.4698 33.1685 62.4698C 20.6419 62.4698 7.94878 53.4259 7.94878 36.0918C 7.94878 27.6759 10.4874 20.7256 15.3566 16.0361C 19.7679 11.7235 25.9272 9.46258 33.1685 9.46258Z"/>
<path id="path3_fill" d="M 11.9024 5.90364C 11.9024 9.79753 8.90597 11.8073 5.95119 11.8073C 2.9964 11.8073 5.08016e-06 9.75566 5.08016e-06 5.90364C 5.08016e-06 2.00975 2.9964 -7.98603e-08 5.95119 -7.98603e-08C 8.90597 -7.98603e-08 11.9024 2.05162 11.9024 5.90364Z"/>
<path id="path4_fill" d="M 7.69909 0L 1.01603e-05 0L 1.01603e-05 70.76L 7.69909 70.76L 7.69909 0Z"/>
<path id="path5_fill" d="M 60.7604 9.92314C 54.2682 3.51706 45.3622 0 35.5823 0C 25.8023 0 16.8964 3.51706 10.4042 9.92314C 3.62064 16.6642 -1.01603e-05 25.8755 -1.01603e-05 36.6361C -1.01603e-05 47.3547 3.62064 56.4824 10.4042 63.0559C 16.8548 69.2945 25.7607 72.686 35.5823 72.686C 45.3622 72.686 54.3098 69.2526 60.7604 63.0559C 67.5855 56.4824 71.1645 47.3547 71.1645 36.6361C 71.1645 25.9174 67.5439 16.6642 60.7604 9.92314ZM 35.5823 7.32721C 51.8128 7.32721 63.5903 19.6788 63.5903 36.6361C 63.5903 53.384 52.0625 65.1075 35.5823 65.1075C 19.1021 65.1075 7.57423 53.384 7.57423 36.6361C 7.57423 19.6369 19.3518 7.32721 35.5823 7.32721Z"/>
<path id="path6_fill" d="M 33.3766 80.0969C 33.3766 89.3502 25.8856 96.8867 16.6883 96.8867C 7.49101 96.8867 -1.01603e-05 89.3502 -1.01603e-05 80.0969L -1.01603e-05 3.99302e-08L 7.69908 3.99302e-08L 7.69908 26.6711L 28.9652 26.6711L 28.9652 34.417L 7.69908 34.417L 7.69908 80.0969C 7.69908 85.0794 11.7359 89.1408 16.6883 89.1408C 21.6407 89.1408 25.6775 85.0794 25.6775 80.0969L 33.3766 80.0969Z"/>
</defs>
</svg>
