<svg width="172" height="65" viewBox="0 0 172 65" version="1.1" xmlns="http://www.w3.org/2000/svg" xmlns:xlink="http://www.w3.org/1999/xlink">
<g id="Canvas" fill="none">
<g id="Cogito/logo">
<g id="Group">
<g id="MENUTEXT1 16px">
<path id="notes" d="M 7.98 8.08C 9.31333 8.08 10.3867 8.48 11.2 9.28C 12.0267 10.08 12.44 11.2667 12.44 12.84L 12.44 19L 9.32 19L 9.32 13.32C 9.32 12.4667 9.13333 11.8333 8.76 11.42C 8.38667 10.9933 7.84667 10.78 7.14 10.78C 6.35333 10.78 5.72667 11.0267 5.26 11.52C 4.79333 12 4.56 12.72 4.56 13.68L 4.56 19L 1.44 19L 1.44 8.24L 4.42 8.24L 4.42 9.5C 4.83333 9.04667 5.34667 8.7 5.96 8.46C 6.57333 8.20667 7.24667 8.08 7.98 8.08ZM 20.5053 19.16C 19.372 19.16 18.352 18.9267 17.4453 18.46C 16.552 17.98 15.852 17.32 15.3453 16.48C 14.8386 15.64 14.5853 14.6867 14.5853 13.62C 14.5853 12.5533 14.8386 11.6 15.3453 10.76C 15.852 9.92 16.552 9.26667 17.4453 8.8C 18.352 8.32 19.372 8.08 20.5053 8.08C 21.6386 8.08 22.652 8.32 23.5453 8.8C 24.4386 9.26667 25.1386 9.92 25.6453 10.76C 26.152 11.6 26.4053 12.5533 26.4053 13.62C 26.4053 14.6867 26.152 15.64 25.6453 16.48C 25.1386 17.32 24.4386 17.98 23.5453 18.46C 22.652 18.9267 21.6386 19.16 20.5053 19.16ZM 20.5053 16.6C 21.3053 16.6 21.9586 16.3333 22.4653 15.8C 22.9853 15.2533 23.2453 14.5267 23.2453 13.62C 23.2453 12.7133 22.9853 11.9933 22.4653 11.46C 21.9586 10.9133 21.3053 10.64 20.5053 10.64C 19.7053 10.64 19.0453 10.9133 18.5253 11.46C 18.0053 11.9933 17.7453 12.7133 17.7453 13.62C 17.7453 14.5267 18.0053 15.2533 18.5253 15.8C 19.0453 16.3333 19.7053 16.6 20.5053 16.6ZM 35.4308 18.48C 35.1241 18.7067 34.7441 18.88 34.2908 19C 33.8508 19.1067 33.3841 19.16 32.8908 19.16C 31.6108 19.16 30.6174 18.8333 29.9108 18.18C 29.2174 17.5267 28.8708 16.5667 28.8708 15.3L 28.8708 10.88L 27.2108 10.88L 27.2108 8.48L 28.8708 8.48L 28.8708 5.86L 31.9908 5.86L 31.9908 8.48L 34.6708 8.48L 34.6708 10.88L 31.9908 10.88L 31.9908 15.26C 31.9908 15.7133 32.1041 16.0667 32.3308 16.32C 32.5708 16.56 32.9041 16.68 33.3308 16.68C 33.8241 16.68 34.2441 16.5467 34.5908 16.28L 35.4308 18.48ZM 47.3902 13.66C 47.3902 13.7 47.3702 13.98 47.3302 14.5L 39.1902 14.5C 39.3368 15.1667 39.6835 15.6933 40.2302 16.08C 40.7768 16.4667 41.4568 16.66 42.2702 16.66C 42.8302 16.66 43.3235 16.58 43.7502 16.42C 44.1902 16.2467 44.5968 15.98 44.9702 15.62L 46.6302 17.42C 45.6168 18.58 44.1368 19.16 42.1902 19.16C 40.9768 19.16 39.9035 18.9267 38.9702 18.46C 38.0368 17.98 37.3168 17.32 36.8102 16.48C 36.3035 15.64 36.0502 14.6867 36.0502 13.62C 36.0502 12.5667 36.2968 11.62 36.7902 10.78C 37.2968 9.92667 37.9835 9.26667 38.8502 8.8C 39.7302 8.32 40.7102 8.08 41.7902 8.08C 42.8435 8.08 43.7968 8.30667 44.6502 8.76C 45.5035 9.21333 46.1702 9.86667 46.6502 10.72C 47.1435 11.56 47.3902 12.54 47.3902 13.66ZM 41.8102 10.44C 41.1035 10.44 40.5102 10.64 40.0302 11.04C 39.5502 11.44 39.2568 11.9867 39.1502 12.68L 44.4502 12.68C 44.3435 12 44.0502 11.46 43.5702 11.06C 43.0902 10.6467 42.5035 10.44 41.8102 10.44ZM 53.0873 19.16C 52.194 19.16 51.3207 19.0533 50.4673 18.84C 49.614 18.6133 48.934 18.3333 48.4273 18L 49.4673 15.76C 49.9473 16.0667 50.5273 16.32 51.2073 16.52C 51.8873 16.7067 52.554 16.8 53.2073 16.8C 54.5273 16.8 55.1873 16.4733 55.1873 15.82C 55.1873 15.5133 55.0073 15.2933 54.6473 15.16C 54.2873 15.0267 53.734 14.9133 52.9873 14.82C 52.1073 14.6867 51.3807 14.5333 50.8073 14.36C 50.234 14.1867 49.734 13.88 49.3073 13.44C 48.894 13 48.6873 12.3733 48.6873 11.56C 48.6873 10.88 48.8807 10.28 49.2673 9.76C 49.6673 9.22667 50.2407 8.81333 50.9873 8.52C 51.7473 8.22667 52.6407 8.08 53.6673 8.08C 54.4273 8.08 55.1807 8.16667 55.9273 8.34C 56.6873 8.5 57.314 8.72667 57.8073 9.02L 56.7673 11.24C 55.8207 10.7067 54.7873 10.44 53.6673 10.44C 53.0007 10.44 52.5007 10.5333 52.1673 10.72C 51.834 10.9067 51.6673 11.1467 51.6673 11.44C 51.6673 11.7733 51.8473 12.0067 52.2073 12.14C 52.5673 12.2733 53.1407 12.4 53.9273 12.52C 54.8073 12.6667 55.5273 12.8267 56.0873 13C 56.6473 13.16 57.134 13.46 57.5473 13.9C 57.9607 14.34 58.1673 14.9533 58.1673 15.74C 58.1673 16.4067 57.9673 17 57.5673 17.52C 57.1673 18.04 56.5807 18.4467 55.8073 18.74C 55.0473 19.02 54.1407 19.16 53.0873 19.16Z" transform="translate(111 45)" fill="#4F4F4F"/>
</g>
<g id="Cogito_5 2">
<g id="XMLID 2">
<g id="XMLID 128">
<path id="XMLID 139" d="M 36.4243 36.1256L 38.9529 38.5116L 38.8227 38.6421C 34.5465 42.9295 28.8386 45.2782 22.7403 45.2782C 7.10408 45.2968 0.0575639 34.0379 0.0017867 22.8907C -0.0725829 16.3851 2.1771 10.4947 6.30461 6.30054C 10.3763 2.18096 16.047 0 22.7217 0C 28.82 0 34.5465 2.34872 38.8041 6.63608L 38.9529 6.7852L 36.3499 9.04072L 36.2198 8.91024C 32.6686 5.34987 27.8718 3.37396 22.7031 3.37396C 17.0696 3.37396 12.31 5.1821 8.92614 8.59335C 5.46795 12.0792 3.59012 17.1121 3.6273 22.7603C 3.68308 27.9796 5.43077 32.7144 8.5171 36.0883C 11.9195 39.7978 16.8279 41.7737 22.7031 41.7737C 27.7602 41.7737 32.7058 39.7605 36.2755 36.2375L 36.4243 36.1256Z" fill="url(#paint0_linear)"/>
</g>
<g id="XMLID 125">
<path id="XMLID 145" d="M 27.1449 4.41784C 24.2445 1.56582 20.2657 0 15.8965 0C 11.5273 0 7.54851 1.56582 4.6481 4.41784C 1.59894 7.41898 -1.13479e-06 11.5199 -1.13479e-06 16.3106C -1.13479e-06 21.0826 1.61754 25.1463 4.6481 28.0728C 7.52992 30.8503 11.5087 32.3602 15.8965 32.3602C 20.2657 32.3602 24.2631 30.8317 27.1449 28.0728C 30.194 25.1463 31.793 21.0826 31.793 16.3106C 31.793 11.5386 30.194 7.41898 27.1449 4.41784ZM 15.8965 3.26212C 23.1475 3.26212 28.4092 8.76111 28.4092 16.3106C 28.4092 23.7668 23.2591 28.9862 15.8965 28.9862C 8.53391 28.9862 3.38382 23.7668 3.38382 16.3106C 3.38382 8.74247 8.64546 3.26212 15.8965 3.26212Z" transform="translate(40.6077 12.8621)" fill="url(#paint1_linear)"/>
</g>
<g id="XMLID 119">
<path id="XMLID 136" d="M 21.5486 29.2286C 26.364 26.8426 29.5805 21.6232 29.5805 16.0683C 29.5805 11.725 28.3906 8.36966 25.8248 5.51764L 28.8368 1.99455L 26.5499 2.84434e-07L 23.538 3.52309C 21.0466 1.7895 17.7929 0.764267 14.8181 0.764267C 10.7464 0.764267 7.04652 2.18096 4.42499 4.75337C 1.59895 7.51219 0.111552 11.4267 0.111552 16.0683C 0.111552 20.2251 1.50598 24.0465 4.07173 26.8053C 6.76763 29.7132 10.4861 31.2604 14.8181 31.2604C 20.1356 31.2604 26.3268 33.6464 26.3268 40.357C 26.3268 43.3768 25.1741 45.7442 22.8872 47.3473C 20.8793 48.764 18.0718 49.5096 14.8181 49.5096C 11.6574 49.5096 8.81279 48.7081 6.82341 47.2541C 4.61091 45.6324 3.43959 43.2464 3.43959 40.357L 3.43959 40.1706L 2.26958e-06 40.1706L 2.26958e-06 40.357C 2.26958e-06 47.8692 5.94957 52.9022 14.8367 52.9022C 24.0214 52.9022 29.7292 48.0929 29.7292 40.357C 29.7106 35.1004 26.8846 31.279 21.5486 29.2286ZM 14.8181 4.21279C 17.9974 4.21279 20.8607 5.29395 22.8686 7.23258C 25.0625 9.35761 26.2153 12.396 26.2153 16.0683C 26.2153 22.4247 21.0094 27.8119 14.8181 27.8119C 9.22183 27.8119 3.55114 23.7855 3.55114 16.0683C 3.55114 12.3215 4.68528 9.22713 6.86059 7.13938C 8.83139 5.21939 11.5831 4.21279 14.8181 4.21279Z" transform="translate(75.989 12.0979)" fill="url(#paint2_linear)"/>
</g>
<g id="XMLID 113">
<path id="XMLID 39" d="M 5.31742 2.62833C 5.31742 4.36192 3.97877 5.25667 2.65871 5.25667C 1.33865 5.25667 2.26958e-06 4.34327 2.26958e-06 2.62833C 2.26958e-06 0.894752 1.33865 -3.55542e-08 2.65871 -3.55542e-08C 3.97877 -3.55542e-08 5.31742 0.913393 5.31742 2.62833Z" transform="translate(110.013 0.875977)" fill="url(#paint3_linear)"/>
<path id="XMLID 115" d="M 3.4396 0L 4.53916e-06 0L 4.53916e-06 31.5027L 3.4396 31.5027L 3.4396 0Z" transform="translate(110.887 13.2905)" fill="url(#paint4_linear)"/>
</g>
<g id="XMLID 103">
<path id="XMLID 126" d="M 27.1449 4.41784C 24.2445 1.56582 20.2657 0 15.8965 0C 11.5273 0 7.54851 1.56582 4.64809 4.41784C 1.61753 7.41898 -4.53916e-06 11.5199 -4.53916e-06 16.3106C -4.53916e-06 21.0826 1.61753 25.1463 4.64809 28.0728C 7.52991 30.8503 11.5087 32.3602 15.8965 32.3602C 20.2657 32.3602 24.2631 30.8317 27.1449 28.0728C 30.194 25.1463 31.793 21.0826 31.793 16.3106C 31.793 11.5386 30.1754 7.41898 27.1449 4.41784ZM 15.8965 3.26212C 23.1475 3.26212 28.4092 8.76111 28.4092 16.3106C 28.4092 23.7668 23.2591 28.9862 15.8965 28.9862C 8.5339 28.9862 3.38381 23.7668 3.38381 16.3106C 3.38381 8.74247 8.64546 3.26212 15.8965 3.26212Z" transform="translate(140.207 12.8621)" fill="url(#paint5_linear)"/>
</g>
<g id="XMLID 1">
<path id="XMLID 86" d="M 14.9111 35.6596C 14.9111 39.7792 11.5645 43.1345 7.45555 43.1345C 3.34663 43.1345 -4.53916e-06 39.7792 -4.53916e-06 35.6596L -4.53916e-06 1.77771e-08L 3.43959 1.77771e-08L 3.43959 11.8741L 12.9403 11.8741L 12.9403 15.3226L 3.43959 15.3226L 3.43959 35.6596C 3.43959 37.8778 5.24306 39.686 7.45555 39.686C 9.66805 39.686 11.4715 37.8778 11.4715 35.6596L 14.9111 35.6596Z" transform="translate(122.265 1.37939)" fill="url(#paint6_linear)"/>
</g>
</g>
</g>
</g>
</g>
</g>
<defs>
<linearGradient id="paint0_linear" x2="1" gradientUnits="userSpaceOnUse" gradientTransform="matrix(0 45.2782 -38.9529 0 38.9529 0)">
<stop stop-color="#67BCFB"/>
<stop offset="1" stop-color="#4787D3"/>
</linearGradient>
<linearGradient id="paint1_linear" x2="1" gradientUnits="userSpaceOnUse" gradientTransform="matrix(0 32.3602 -31.793 0 31.793 0)">
<stop stop-color="#67BCFB"/>
<stop offset="1" stop-color="#4787D3"/>
</linearGradient>
<linearGradient id="paint2_linear" x2="1" gradientUnits="userSpaceOnUse" gradientTransform="matrix(0 52.9022 -29.7292 0 29.7292 0)">
<stop stop-color="#67BCFB"/>
<stop offset="1" stop-color="#4787D3"/>
</linearGradient>
<linearGradient id="paint3_linear" x2="1" gradientUnits="userSpaceOnUse" gradientTransform="matrix(0 5.25667 -5.31742 0 5.31742 0)">
<stop stop-color="#67BCFB"/>
<stop offset="1" stop-color="#4787D3"/>
</linearGradient>
<linearGradient id="paint4_linear" x2="1" gradientUnits="userSpaceOnUse" gradientTransform="matrix(0 31.5027 -3.43959 0 3.43959 0)">
<stop stop-color="#67BCFB"/>
<stop offset="1" stop-color="#4787D3"/>
</linearGradient>
<linearGradient id="paint5_linear" x2="1" gradientUnits="userSpaceOnUse" gradientTransform="matrix(0 32.3602 -31.793 0 31.793 0)">
<stop stop-color="#67BCFB"/>
<stop offset="1" stop-color="#4787D3"/>
</linearGradient>
<linearGradient id="paint6_linear" x2="1" gradientUnits="userSpaceOnUse" gradientTransform="matrix(0 43.1345 -14.9111 0 14.9111 0)">
<stop stop-color="#67BCFB"/>
<stop offset="1" stop-color="#4787D3"/>
</linearGradient>
</defs>
</svg>
